<?xml version="1.0" encoding="UTF-8" standalone="no"?>
<svg
   xmlns:dc="http://purl.org/dc/elements/1.1/"
   xmlns:cc="http://creativecommons.org/ns#"
   xmlns:rdf="http://www.w3.org/1999/02/22-rdf-syntax-ns#"
   xmlns:svg="http://www.w3.org/2000/svg"
   xmlns="http://www.w3.org/2000/svg"
   xmlns:sodipodi="http://sodipodi.sourceforge.net/DTD/sodipodi-0.dtd"
   xmlns:inkscape="http://www.inkscape.org/namespaces/inkscape"
   enable-background="new 0 0 100 100"
   height="100px"
   id="Layer_1"
   version="1.1"
   viewBox="0 0 100 100"
   width="100px"
   xml:space="preserve"
   inkscape:version="0.48.5 r10040"
   sodipodi:docname="goodreads.svg"><metadata
     id="metadata14"><rdf:RDF><cc:Work
         rdf:about=""><dc:format>image/svg+xml</dc:format><dc:type
           rdf:resource="http://purl.org/dc/dcmitype/StillImage" /><dc:title></dc:title></cc:Work></rdf:RDF></metadata><defs
     id="defs12" /><sodipodi:namedview
     pagecolor="#ffffff"
     bordercolor="#ffffff"
     borderopacity="1"
     objecttolerance="10"
     gridtolerance="10"
     guidetolerance="10"
     inkscape:pageopacity="0"
     inkscape:pageshadow="2"
     inkscape:window-width="899"
     inkscape:window-height="774"
     id="namedview10"
     showgrid="false"
     inkscape:zoom="2.36"
     inkscape:cx="50"
     inkscape:cy="50"
     inkscape:window-x="0"
     inkscape:window-y="0"
     inkscape:window-maximized="0"
     inkscape:current-layer="Layer_1" /><g
     id="g3"><defs
       id="defs5"><rect
         height="100"
         id="SVGID_1_"
         width="100" /></defs><path
       d="M49.289,68.463c9.74-0.081,16.666-4.953,20.775-14.613h0.215v14.734   c0,1.098-0.072,2.801-0.215,5.115c-0.293,2.395-1.076,4.973-2.347,7.732c-1.272,2.597-3.327,4.812-6.16,6.637   c-2.801,1.99-6.707,3.024-11.727,3.106c-4.834,0-8.922-1.259-12.268-3.774c-3.42-2.478-5.418-6.497-5.998-12.058h-4.252   c0.436,7.226,2.742,12.382,6.922,15.468c4.07,2.961,9.234,4.444,15.488,4.444c6.177,0,10.996-1.157,14.449-3.472   c3.416-2.232,5.869-5.014,7.361-8.344c1.49-3.329,2.381-6.495,2.67-9.498c0.221-3.004,0.328-5.155,0.328-6.456V6.717h-4.254v13.396   h-0.215c-1.638-4.911-4.345-8.625-8.127-11.143c-3.816-2.476-8.033-3.715-12.648-3.715c-8.037,0.163-14.143,3.268-18.322,9.317   c-4.291,6.007-6.434,13.417-6.434,22.226c0,9.053,2.035,16.542,6.105,22.47C34.748,65.316,40.963,68.382,49.289,68.463    M33.912,17.861c3.342-5.481,8.467-8.322,15.377-8.525c7.088,0.204,12.338,2.964,15.758,8.282   c3.416,5.319,5.125,11.712,5.125,19.182s-1.709,13.822-5.125,19.06c-3.42,5.562-8.67,8.402-15.758,8.524   C42.6,64.261,37.508,61.5,34.02,56.102c-3.527-5.236-5.289-11.671-5.289-19.303C28.73,29.654,30.457,23.341,33.912,17.861"
       id="path8" /></g><path
     style="fill:#e6e6e6;fill-opacity:1;stroke:#0000ff;stroke-width:0.00423729;stroke-miterlimit:4;stroke-opacity:1;stroke-dasharray:none"
     d="M 43.275786,94.347034 C 37.874881,93.175127 32.984464,90.11203 30.676009,86.455199 29.406932,84.444852 28.136417,80.555864 27.826521,77.733051 l -0.24422,-2.224576 1.825929,0 1.825929,0 0.68301,2.767745 c 0.888368,3.59992 1.710074,5.279572 3.674718,7.51153 1.866154,2.120059 4.680135,3.752013 8.242771,4.780347 1.98473,0.572882 3.586675,0.683814 7.529628,0.521424 4.747443,-0.195521 5.178215,-0.29014 8.263712,-1.815076 5.482182,-2.709441 8.393099,-6.41803 10.04454,-12.797021 0.553564,-2.138238 0.660263,-4.565678 0.568081,-12.923729 l -0.1135,-10.290983 -1.693216,3.177966 C 64.157823,64.466386 56.294881,68.836369 47.405022,68.127886 39.089301,67.465157 32.911486,63.413508 29.146251,56.153085 26.065887,50.21328 24.939012,45.009934 24.952897,36.790264 c 0.01338,-7.91945 1.001349,-12.49044 3.912689,-18.102622 4.323032,-8.333496 10.421387,-12.4950499 19.01577,-12.9764751 6.112587,-0.3424042 11.110529,1.2099031 15.579871,4.8389411 1.950799,1.58402 4.678116,5.363141 5.596612,7.754977 0.313233,0.815678 0.729631,1.664195 0.92533,1.885593 0.195695,0.221398 0.355814,-2.686441 0.355814,-6.461864 l 0,-6.8644072 1.90678,0 1.906779,0 0,33.2350102 c 0,36.269841 0.01699,35.98043 -2.474084,42.094392 -2.667221,6.546229 -7.715852,10.596216 -15.180665,12.177852 -3.593827,0.761458 -9.651218,0.750174 -13.222007,-0.02462 l 0,-8e-6 z M 53.898635,64.021737 c 7.174006,-1.500949 12.687289,-7.690928 15.243937,-17.114957 1.313195,-4.840561 1.314767,-15.423104 0.003,-20.24482 C 65.417181,12.95722 56.146936,6.9737918 43.432203,10.0654 37.350672,11.544135 31.662574,18.771292 29.61034,27.627119 c -1.313973,5.670075 -1.198762,14.115013 0.268807,19.703389 0.855678,3.258352 3.32769,8.271628 5.324003,10.797153 4.001795,5.062648 11.448383,7.410314 18.695485,5.894076 z"
     id="path2991"
     inkscape:connector-curvature="0" /></svg>
