<?xml version="1.0" encoding="UTF-8" standalone="no"?>
<svg
   xmlns:dc="http://purl.org/dc/elements/1.1/"
   xmlns:cc="http://creativecommons.org/ns#"
   xmlns:rdf="http://www.w3.org/1999/02/22-rdf-syntax-ns#"
   xmlns:svg="http://www.w3.org/2000/svg"
   xmlns="http://www.w3.org/2000/svg"
   xmlns:sodipodi="http://sodipodi.sourceforge.net/DTD/sodipodi-0.dtd"
   xmlns:inkscape="http://www.inkscape.org/namespaces/inkscape"
   enable-background="new -1163 1657.697 56.693 56.693"
   height="56.693px"
   id="Layer_1"
   version="1.1"
   viewBox="-1163 1657.697 56.693 56.693"
   width="56.693px"
   xml:space="preserve"
   inkscape:version="0.48.5 r10040"
   sodipodi:docname="stackoverflow.svg"><metadata
     id="metadata21"><rdf:RDF><cc:Work
         rdf:about=""><dc:format>image/svg+xml</dc:format><dc:type
           rdf:resource="http://purl.org/dc/dcmitype/StillImage" /><dc:title></dc:title></cc:Work></rdf:RDF></metadata><defs
     id="defs19" /><sodipodi:namedview
     pagecolor="#ffffff"
     bordercolor="#ffffff"
     borderopacity="1"
     objecttolerance="10"
     gridtolerance="10"
     guidetolerance="10"
     inkscape:pageopacity="0"
     inkscape:pageshadow="2"
     inkscape:window-width="935"
     inkscape:window-height="861"
     id="namedview17"
     showgrid="false"
     inkscape:zoom="4.1627714"
     inkscape:cx="28.3465"
     inkscape:cy="28.3465"
     inkscape:window-x="0"
     inkscape:window-y="0"
     inkscape:window-maximized="0"
     inkscape:current-layer="Layer_1" /><rect
     height="4.1104"
     transform="matrix(-0.8613 -0.508 0.508 -0.8613 -2964.1831 2556.6357)"
     width="19.2465"
     x="-1142.8167"
     y="1680.7778"
     id="rect3" /><rect
     height="4.1105"
     transform="matrix(-0.9657 -0.2596 0.2596 -0.9657 -2672.0498 3027.386)"
     width="19.2462"
     x="-1145.7363"
     y="1688.085"
     id="rect5" /><rect
     height="4.1098"
     transform="matrix(-0.9958 -0.0918 0.0918 -0.9958 -2425.5647 3282.8535)"
     width="19.246"
     x="-1146.9451"
     y="1695.1263"
     id="rect7" /><rect
     height="4.111"
     width="19.2473"
     x="-1147.2625"
     y="1701.293"
     id="rect9" /><path
     d="M-1121.4579,1710.9474c0,0,0,0.9601-0.0323,0.9601v0.0156h-30.7953c0,0-0.9598,0-0.9598-0.0156h-0.0326v-20.03h3.2877  v16.8049h25.2446v-16.8049h3.2877V1710.9474z"
     id="path11" /><rect
     height="4.111"
     transform="matrix(0.5634 0.8262 -0.8262 0.5634 892.9033 1662.7915)"
     width="19.247"
     x="-1136.5389"
     y="1674.2235"
     id="rect13" /><rect
     height="4.1108"
     transform="matrix(0.171 0.9853 -0.9853 0.171 720.9987 2489.031)"
     width="19.2461"
     x="-1128.3032"
     y="1670.9347"
     id="rect15" /><path
     style="fill:#e6e6e6;fill-opacity:1;stroke:#0000ff;stroke-width:0.00240225;stroke-miterlimit:4;stroke-opacity:1;stroke-dasharray:none"
     d="m 9.8972527,44.225345 0,-9.96932 1.4413473,0 1.441348,0 0,8.40786 0,8.407861 12.852015,0 12.852015,0 0,-8.407861 0,-8.40786 1.441347,0 1.441348,0 0,9.96932 0,9.96932 -15.73471,0 -15.7347103,0 0,-9.96932 z"
     id="path2998"
     inkscape:connector-curvature="0"
     transform="translate(-1163,1657.697)" /><path
     style="fill:#e6e6e6;fill-opacity:1;stroke:#0000ff;stroke-width:0.00240225;stroke-miterlimit:4;stroke-opacity:1;stroke-dasharray:none"
     d="m 15.902867,45.666693 0,-2.041909 9.488871,0 9.488871,0 0,2.041909 0,2.041909 -9.488871,0 -9.488871,0 0,-2.041909 z"
     id="path3000"
     inkscape:connector-curvature="0"
     transform="translate(-1163,1657.697)" /><path
     style="fill:#e6e6e6;fill-opacity:1;stroke:#0000ff;stroke-width:0.00240225;stroke-miterlimit:4;stroke-opacity:1;stroke-dasharray:none"
     d="m 24.497608,41.361318 c -4.455477,-0.421275 -8.151455,-0.816542 -8.213284,-0.878372 -0.06183,-0.06183 -0.0491,-0.949619 0.02829,-1.972865 l 0.140705,-1.860449 0.74573,0.12064 c 0.410151,0.06635 4.637367,0.462446 9.393814,0.880209 4.756447,0.417764 8.688266,0.792964 8.737377,0.833777 0.04911,0.04081 0.01286,0.889825 -0.08055,1.886692 l -0.169843,1.812486 -1.240683,-0.02808 c -0.682376,-0.01544 -4.886074,-0.372762 -9.341551,-0.794037 z"
     id="path3002"
     inkscape:connector-curvature="0"
     transform="translate(-1163,1657.697)" /><path
     style="fill:#e6e6e6;fill-opacity:1;stroke:#0000ff;stroke-width:0.00240225;stroke-miterlimit:4;stroke-opacity:1;stroke-dasharray:none"
     d="M 26.475279,34.365757 C 21.91841,33.129058 17.962187,32.06002 17.683673,31.990117 l -0.50639,-0.127096 0.482005,-1.806305 c 0.265103,-0.993468 0.59994,-1.80507 0.744083,-1.803561 0.310251,0.0032 17.95025,4.747823 18.035975,4.851078 0.03232,0.03893 -0.154537,0.854514 -0.415238,1.81241 -0.350504,1.28786 -0.576865,1.7359 -0.868806,1.719644 -0.217143,-0.01209 -4.123153,-1.03383 -8.680023,-2.27053 z"
     id="path3004"
     inkscape:connector-curvature="0"
     transform="translate(-1163,1657.697)" /><path
     style="fill:#e6e6e6;fill-opacity:1;stroke:#0000ff;stroke-width:0.00240225;stroke-miterlimit:4;stroke-opacity:1;stroke-dasharray:none"
     d="m 28.701205,26.845478 c -4.389598,-2.596437 -7.983958,-4.789883 -7.987467,-4.874324 -0.0035,-0.08444 0.401843,-0.852102 0.900781,-1.705913 l 0.907161,-1.552384 7.575249,4.468496 c 4.166387,2.457673 7.832709,4.639669 8.147382,4.848881 l 0.572132,0.380384 -0.936819,1.601468 c -0.515251,0.880808 -0.995435,1.59083 -1.067075,1.577827 -0.07164,-0.013 -3.721745,-2.147999 -8.111344,-4.744435 l 0,0 z"
     id="path3006"
     inkscape:connector-curvature="0"
     transform="translate(-1163,1657.697)" /><path
     style="fill:#e6e6e6;fill-opacity:1;stroke:#0000ff;stroke-width:0.00240225;stroke-miterlimit:4;stroke-opacity:1;stroke-dasharray:none"
     d="m 36.863139,23.025526 c -1.596253,-2.345193 -3.989866,-5.85627 -5.31914,-7.802394 l -2.416862,-3.538409 1.422207,-0.965802 c 0.782215,-0.531192 1.528394,-0.9658031 1.658177,-0.9658031 0.223829,0 10.222106,14.4945691 10.502744,15.2258981 0.08838,0.230313 -0.352579,0.676613 -1.312748,1.328652 -0.795206,0.540014 -1.487741,0.981844 -1.538965,0.981844 -0.05122,0 -1.39916,-1.918794 -2.995413,-4.263986 z"
     id="path3008"
     inkscape:connector-curvature="0"
     transform="translate(-1163,1657.697)" /><path
     style="fill:#e6e6e6;fill-opacity:1;stroke:#0000ff;stroke-width:0.00240225;stroke-miterlimit:4;stroke-opacity:1;stroke-dasharray:none"
     d="M 43.914481,24.226649 C 43.320513,21.272734 40.851398,6.3447241 40.941828,6.2542944 c 0.06347,-0.063466 0.895329,-0.2640036 1.848584,-0.4456383 1.283736,-0.244605 1.756622,-0.2587723 1.823547,-0.054632 0.192501,0.5871898 3.192104,18.2972159 3.112665,18.3775659 -0.06249,0.0632 -3.388076,0.753665 -3.638338,0.755393 -0.02253,1.56e-4 -0.100745,-0.296994 -0.173805,-0.660334 z"
     id="path3010"
     inkscape:connector-curvature="0"
     transform="translate(-1163,1657.697)" /></svg>
